<?xml version="1.0" encoding="UTF-8"?>
<svg version="1.1" xmlns="http://www.w3.org/2000/svg" width="225" height="225">
<path d="M0 0 C74.25 0 148.5 0 225 0 C225 74.25 225 148.5 225 225 C150.75 225 76.5 225 0 225 C0 150.75 0 76.5 0 0 Z " fill="#617970" transform="translate(0,0)"/>
<path d="M0 0 C74.25 0 148.5 0 225 0 C225 23.43 225 46.86 225 71 C150.75 71 76.5 71 0 71 C0 47.57 0 24.14 0 0 Z " fill="#5E667F" transform="translate(0,0)"/>
<path d="M0 0 C74.25 0 148.5 0 225 0 C225 20.13 225 40.26 225 61 C150.75 61 76.5 61 0 61 C0 40.87 0 20.74 0 0 Z " fill="#808181" transform="translate(0,164)"/>
<path d="M0 0 C74.25 0 148.5 0 225 0 C225 7.92 225 15.84 225 24 C150.75 24 76.5 24 0 24 C0 16.08 0 8.16 0 0 Z " fill="#697B74" transform="translate(0,140)"/>
<path d="M0 0 C74.25 0 148.5 0 225 0 C225 4.95 225 9.9 225 15 C211.16473387 15.13330961 197.32944401 15.2638146 183.49412155 15.39115143 C177.06328829 15.45041855 170.63246525 15.51049972 164.20166016 15.57275391 C118.38310356 16.01515603 72.56497896 16.40272836 26.75 15.5 C24.09636206 15.45139021 21.44271612 15.40321503 18.7890625 15.35546875 C12.5259397 15.2418932 6.26294888 15.12277731 0 15 C0 10.05 0 5.1 0 0 Z " fill="#587067" transform="translate(0,71)"/>
<path d="M0 0 C74.25 0 148.5 0 225 0 C225 4.29 225 8.58 225 13 C150.75 13 76.5 13 0 13 C0 8.71 0 4.42 0 0 Z " fill="#637971" transform="translate(0,127)"/>
<path d="M0 0 C74.25 0 148.5 0 225 0 C225 4.29 225 8.58 225 13 C150.75 13 76.5 13 0 13 C0 8.71 0 4.42 0 0 Z " fill="#697B74" transform="translate(0,58)"/>
<path d="M0 0 C74.25 0 148.5 0 225 0 C225 3.63 225 7.26 225 11 C150.75 11 76.5 11 0 11 C0 7.37 0 3.74 0 0 Z " fill="#4A665B" transform="translate(0,116)"/>
<path d="M0 0 C74.25 0 148.5 0 225 0 C225 3.63 225 7.26 225 11 C150.75 11 76.5 11 0 11 C0 7.37 0 3.74 0 0 Z " fill="#586E65" transform="translate(0,105)"/>
<path d="M0 0 C74.25 0 148.5 0 225 0 C225 2.31 225 4.62 225 7 C150.75 7 76.5 7 0 7 C0 4.69 0 2.38 0 0 Z " fill="#627970" transform="translate(0,86)"/>
<path d="M0 0 C48.02740843 -0.07670992 96.0499223 0.10675801 144.07609105 0.44538212 C152.94074227 0.5077852 161.80541214 0.56733566 170.67008376 0.62675762 C188.78007669 0.7482114 206.8900459 0.87289463 225 1 C225 2.98 225 4.96 225 7 C150.75 7 76.5 7 0 7 C0 4.69 0 2.38 0 0 Z " fill="#687B73" transform="translate(0,64)"/>
<path d="M0 0 C74.25 0 148.5 0 225 0 C225 1.65 225 3.3 225 5 C211.11291999 5.13312677 197.22581773 5.2636322 183.33868504 5.39115143 C176.88422536 5.45049449 170.42977514 5.51060769 163.9753418 5.57275391 C118.79164799 6.00673435 73.61792229 6.33227829 28.4375 5.5 C25.62566565 5.45095924 22.81380986 5.40320642 20.00195312 5.35546875 C13.33454979 5.24160648 6.66724553 5.12275211 0 5 C0 3.35 0 1.7 0 0 Z " fill="#597067" transform="translate(0,71)"/>
<path d="M0 0 C74.25 0 148.5 0 225 0 C225 1.65 225 3.3 225 5 C150.75 5 76.5 5 0 5 C0 3.35 0 1.7 0 0 Z " fill="#4E615A" transform="translate(0,127)"/>
<path d="M0 0 C46.14721133 -0.08931743 92.29021164 0.14282654 138.43629062 0.44538212 C147.91018048 0.50741686 157.38408453 0.56714699 166.85798991 0.62675762 C186.2386758 0.74875044 205.61934366 0.87340317 225 1 C225 1.99 225 2.98 225 4 C211.16473387 4.13330961 197.32944401 4.2638146 183.49412155 4.39115143 C177.06328829 4.45041855 170.63246525 4.51049972 164.20166016 4.57275391 C118.38310356 5.01515603 72.56497896 5.40272836 26.75 4.5 C24.09636206 4.45139021 21.44271612 4.40321503 18.7890625 4.35546875 C12.52594221 4.24189324 6.26293553 4.1233275 0 4 C0 2.68 0 1.36 0 0 Z " fill="#4C675C" transform="translate(0,82)"/>
<path d="M0 0 C74.25 0 148.5 0 225 0 C225 0.99 225 1.98 225 3 C211.19927647 3.13343256 197.39852821 3.26393666 183.5977459 3.39115143 C177.18266357 3.45036772 170.76759198 3.51042709 164.35253906 3.57275391 C118.11117828 4.02081584 71.86243102 4.45539831 25.625 3.5 C23.07683181 3.45135464 20.52865459 3.40318029 17.98046875 3.35546875 C11.98686611 3.24229278 5.99339309 3.12375767 0 3 C0 2.01 0 1.02 0 0 Z " fill="#3D5A4F" transform="translate(0,93)"/>
<path d="M0 0 C74.25 0 148.5 0 225 0 C225 0.99 225 1.98 225 3 C150.75 3 76.5 3 0 3 C0 2.01 0 1.02 0 0 Z " fill="#81A295" transform="translate(0,116)"/>
<path d="M0 0 C74.25 0 148.5 0 225 0 C225 0.99 225 1.98 225 3 C150.75 3 76.5 3 0 3 C0 2.01 0 1.02 0 0 Z " fill="#91A09A" transform="translate(0,68)"/>
<path d="M0 0 C74.25 0 148.5 0 225 0 C225 0.99 225 1.98 225 3 C150.75 3 76.5 3 0 3 C0 2.01 0 1.02 0 0 Z " fill="#8F9F99" transform="translate(0,76)"/>
<path d="M0 0 C74.25 0 148.5 0 225 0 C225 0.99 225 1.98 225 3 C150.75 3 76.5 3 0 3 C0 2.01 0 1.02 0 0 Z " fill="#8D9E98" transform="translate(0,86)"/>
<path d="M0 0 C74.25 0 148.5 0 225 0 C225 0.99 225 1.98 225 3 C150.75 3 76.5 3 0 3 C0 2.01 0 1.02 0 0 Z " fill="#8C9E97" transform="translate(0,96)"/>
<path d="M0 0 C74.25 0 148.5 0 225 0 C225 0.99 225 1.98 225 3 C150.75 3 76.5 3 0 3 C0 2.01 0 1.02 0 0 Z " fill="#8C9E97" transform="translate(0,124)"/>
<path d="M0 0 C74.25 0 148.5 0 225 0 C225 0.99 225 1.98 225 3 C206.59008107 3.02390157 188.18016641 3.0412481 169.77023506 3.05181217 C161.21237782 3.05685868 152.65453056 3.06369097 144.09667969 3.07543945 C96.05551555 3.14008169 48.03483579 2.79438899 0 2 C0 1.34 0 0.68 0 0 Z " fill="#889691" transform="translate(0,58)"/>
<path d="M0 0 C47.81852361 -0.07788885 95.63215303 0.11103183 143.44944656 0.44538212 C152.381791 0.50774157 161.31415354 0.56731349 170.24651778 0.62675762 C188.49769875 0.74827475 206.74885671 0.87295484 225 1 C225 1.33 225 1.66 225 2 C211.04383484 2.13288585 197.08764941 2.2633903 183.13143635 2.39115143 C176.64547475 2.45059519 170.15952165 2.51074984 163.67358398 2.57275391 C120.06011383 2.98873908 76.46231516 3.28058684 32.85144043 2.53643799 C29.10738408 2.47339287 25.36325927 2.41467669 21.61914062 2.35546875 C14.4126921 2.24093425 7.20632491 2.12209203 0 2 C0 1.34 0 0.68 0 0 Z " fill="#354F45" transform="translate(0,66)"/>
<path d="M0 0 C46.77393296 -0.08456066 93.54344176 0.13137907 140.3162241 0.44538212 C149.58703449 0.50753379 158.85786045 0.56720725 168.12868786 0.62675762 C187.0858093 0.74857827 206.04291096 0.87324167 225 1 C225 1.33 225 1.66 225 2 C211.11291999 2.13312677 197.22581773 2.2636322 183.33868504 2.39115143 C176.88422536 2.45049449 170.42977514 2.51060769 163.9753418 2.57275391 C118.79164799 3.00673435 73.61792229 3.33227829 28.4375 2.5 C25.62566565 2.45095924 22.81380986 2.40320642 20.00195312 2.35546875 C13.33454979 2.24160648 6.66724553 2.12275211 0 2 C0 1.34 0 0.68 0 0 Z " fill="#314E43" transform="translate(0,74)"/>
</svg>
