<?xml version="1.0" encoding="UTF-8"?>
<svg version="1.1" xmlns="http://www.w3.org/2000/svg" width="227" height="222">
<path d="M0 0 C74.91 0 149.82 0 227 0 C227 73.26 227 146.52 227 222 C152.09 222 77.18 222 0 222 C0 148.74 0 75.48 0 0 Z " fill="#1A0101" transform="translate(0,0)"/>
<path d="M0 0 C74.91 0 149.82 0 227 0 C227 30.36 227 60.72 227 92 C152.09 92 77.18 92 0 92 C0 61.64 0 31.28 0 0 Z " fill="#361500" transform="translate(0,0)"/>
<path d="M0 0 C74.91 0 149.82 0 227 0 C227 6.93 227 13.86 227 21 C152.09 21 77.18 21 0 21 C0 14.07 0 7.14 0 0 Z " fill="#311A1A" transform="translate(0,201)"/>
<path d="M0 0 C74.91 0 149.82 0 227 0 C227 4.62 227 9.24 227 14 C152.09 14 77.18 14 0 14 C0 9.38 0 4.76 0 0 Z " fill="#1F0808" transform="translate(0,187)"/>
<path d="M0 0 C66.99 0 133.98 0 203 0 C203 0.99 203 1.98 203 3 C210.92 3 218.84 3 227 3 C227 4.98 227 6.96 227 9 C152.09 9 77.18 9 0 9 C0 6.03 0 3.06 0 0 Z " fill="#331D1D" transform="translate(0,213)"/>
<path d="M0 0 C49.17 0 98.34 0 149 0 C149 0.99 149 1.98 149 3 C124.33333333 3 99.66666667 3 75 3 C75 3.33 75 3.66 75 4 C99.42 4 123.84 4 149 4 C149 7.63 149 11.26 149 15 C99.83 15 50.66 15 0 15 C0 10.05 0 5.1 0 0 Z " fill="#331300" transform="translate(0,42)"/>
<path d="M0 0 C14.58571195 -0.02333003 29.17142103 -0.04091327 43.75714779 -0.05181217 C50.52910421 -0.05697491 57.30104905 -0.06401718 64.07299805 -0.07543945 C70.60224426 -0.08644714 77.13148294 -0.09227625 83.66073799 -0.09487724 C86.15793612 -0.09673199 88.65513355 -0.10035354 91.15232658 -0.10573006 C94.63664069 -0.11293684 98.12090431 -0.1139911 101.60522461 -0.11352539 C102.64891205 -0.11712067 103.69259949 -0.12071594 104.76791382 -0.12442017 C105.71167374 -0.1230455 106.65543365 -0.12167084 107.62779236 -0.12025452 C108.45279708 -0.12117631 109.2778018 -0.1220981 110.12780666 -0.12304783 C112 0 112 0 113 1 C115.66426685 1.16003488 118.30560428 1.25942889 120.97265625 1.31640625 C122.16912025 1.3475779 122.16912025 1.3475779 123.38975525 1.37937927 C125.94724611 1.44496158 128.5048428 1.50379967 131.0625 1.5625 C132.79232882 1.60567699 134.52214679 1.64929101 136.25195312 1.69335938 C140.5011926 1.80065172 144.7505389 1.90189426 149 2 C149 4.31 149 6.62 149 9 C75.245 8.505 75.245 8.505 0 8 C0 5.36 0 2.72 0 0 Z " fill="#341500" transform="translate(0,64)"/>
<path d="M0 0 C37.62 0 75.24 0 114 0 C114 0.33 114 0.66 114 1 C121.92 1.33 129.84 1.66 138 2 C138 2.66 138 3.32 138 4 C141.63 4 145.26 4 149 4 C149 5.65 149 7.3 149 9 C145.7 9 142.4 9 139 9 C139 8.34 139 7.68 139 7 C93.13 7 47.26 7 0 7 C0 4.69 0 2.38 0 0 Z " fill="#260F00" transform="translate(0,76)"/>
<path d="M0 0 C49.17 0 98.34 0 149 0 C149 0.99 149 1.98 149 3 C124.33333333 3 99.66666667 3 75 3 C75 3.33 75 3.66 75 4 C99.42 4 123.84 4 149 4 C149 5.65 149 7.3 149 9 C143.72 9 138.44 9 133 9 C133 8.34 133 7.68 133 7 C89.11 7 45.22 7 0 7 C0 4.69 0 2.38 0 0 Z " fill="#0C0000" transform="translate(0,42)"/>
<path d="M0 0 C63.69 0 127.38 0 193 0 C193 1.32 193 2.64 193 4 C129.31 4 65.62 4 0 4 C-0.33 3.34 -0.66 2.68 -1 2 C-0.67 1.34 -0.34 0.68 0 0 Z " fill="#190000" transform="translate(17,204)"/>
<path d="M0 0 C16.62174908 -0.02348274 33.24349268 -0.04105402 49.8652544 -0.05181217 C57.58506135 -0.05694274 65.30485792 -0.0639228 73.0246582 -0.07543945 C79.76245036 -0.08548623 86.50023499 -0.0918769 93.23803443 -0.09408849 C96.79725209 -0.09537884 100.35644826 -0.09835609 103.91565895 -0.10573006 C118.97367381 -0.1357612 133.97269124 -0.04670221 149 1 C149 1.99 149 2.98 149 4 C133.581621 5.15744064 118.17501077 5.13308996 102.72219801 5.10139394 C99.09878706 5.09505427 95.47537487 5.09454835 91.85195923 5.09336853 C85.02081074 5.09028601 78.18967865 5.08211504 71.35853732 5.07201904 C63.56866943 5.06076111 55.77880067 5.0553233 47.98892665 5.05032361 C31.99260834 5.0399291 15.9963063 5.02239064 0 5 C0 3.35 0 1.7 0 0 Z " fill="#5E3100" transform="translate(0,31)"/>
<path d="M0 0 C16.47409452 -0.0234929 32.94818351 -0.0410589 49.4222908 -0.05181217 C57.07368789 -0.05694063 64.72507449 -0.06391651 72.37646484 -0.07543945 C79.05530294 -0.08549283 85.73413343 -0.09187842 92.41297889 -0.09408849 C95.94037046 -0.09537776 99.4677403 -0.09834771 102.99512482 -0.10573006 C118.3627552 -0.13668759 133.66123511 0.00349298 149 1 C149 1.99 149 2.98 149 4 C132.97184619 5.04129426 116.98044549 5.13499946 100.92326832 5.10139394 C97.36126214 5.0950394 93.79925462 5.09454722 90.23724365 5.09336853 C83.52657589 5.09029022 76.81592489 5.08212525 70.10526443 5.07201904 C62.4507769 5.06074763 54.79628847 5.05531998 47.14179468 5.05032361 C31.42785349 5.0399387 15.71392893 5.02240886 0 5 C0 3.35 0 1.7 0 0 Z " fill="#5C3000" transform="translate(0,25)"/>
<path d="M0 0 C16.32643997 -0.02350324 32.65287433 -0.04106385 48.9793272 -0.05181217 C56.56231443 -0.05693849 64.14529106 -0.06391011 71.72827148 -0.07543945 C78.34815552 -0.08549957 84.96803188 -0.09187997 91.58792335 -0.09408849 C95.08348882 -0.09537665 98.57903234 -0.09833916 102.07459068 -0.10573006 C117.74844449 -0.13762594 133.35246921 0.04752282 149 1 C149 1.99 149 2.98 149 4 C132.66959941 4.99404399 116.38062857 5.13597828 100.02380347 5.10139394 C96.49249968 5.09503174 92.9611945 5.09454665 89.42988586 5.09336853 C82.77945846 5.09029237 76.12904801 5.0821305 69.47862798 5.07201904 C61.89183064 5.06074069 54.30503237 5.05531828 46.7182287 5.05032361 C31.14547607 5.03994361 15.57274024 5.02241823 0 5 C0 3.35 0 1.7 0 0 Z " fill="#5B2F00" transform="translate(0,19)"/>
<path d="M0 0 C74.91 0 149.82 0 227 0 C227 0.99 227 1.98 227 3 C152.09 3 77.18 3 0 3 C0 2.01 0 1.02 0 0 Z " fill="#130303" transform="translate(0,178)"/>
<path d="M0 0 C16.17878541 -0.02351379 32.35756516 -0.04106889 48.5363636 -0.05181217 C56.05094097 -0.05693631 63.56550764 -0.06390358 71.08007812 -0.07543945 C77.6410081 -0.08550643 84.20193032 -0.09188154 90.76286781 -0.09408849 C94.22660719 -0.09537553 97.69032439 -0.09833043 101.15405655 -0.10573006 C117.13443566 -0.13603253 133.04384677 0.08633842 149 1 C149 1.99 149 2.98 149 4 C132.36712909 4.95241096 115.7819028 5.13697976 99.12433863 5.10139394 C95.62373723 5.09502393 92.12313438 5.09454606 88.62252808 5.09336853 C82.03234103 5.09029457 75.44217113 5.08213585 68.85199153 5.07201904 C61.33288437 5.06073362 53.81377627 5.05531656 46.29466271 5.05032361 C30.86309865 5.03994862 15.43155156 5.02242778 0 5 C0 3.35 0 1.7 0 0 Z " fill="#592D00" transform="translate(0,13)"/>
<path d="M0 0 C16.03113085 -0.02352453 32.06225598 -0.04107402 48.0934 -0.05181217 C55.53956751 -0.05693409 62.98572421 -0.06389692 70.43188477 -0.07543945 C76.93386069 -0.08551343 83.43582876 -0.09188313 89.93781227 -0.09408849 C93.36972556 -0.09537439 96.80161643 -0.09832152 100.23352242 -0.10573006 C116.51946717 -0.136927 132.73634437 0.12086833 149 1 C149 1.99 149 2.98 149 4 C132.06634011 4.91534875 115.18122497 5.13799803 98.22487378 5.10139394 C94.75497477 5.09501597 91.28507426 5.09454546 87.81517029 5.09336853 C81.2852236 5.0902968 74.75529424 5.08214131 68.22535509 5.07201904 C60.77393811 5.06072641 53.32252017 5.0553148 45.87109673 5.05032361 C30.58072122 5.03995371 15.29036287 5.02243751 0 5 C0 3.35 0 1.7 0 0 Z " fill="#572C00" transform="translate(0,7)"/>
<path d="M0 0 C43.23 0 86.46 0 131 0 C131 0.99 131 1.98 131 3 C136.94 3 142.88 3 149 3 C149 3.33 149 3.66 149 4 C133.88694306 5.23016599 118.77302812 5.13216496 103.62166286 5.10139394 C99.96754952 5.09506149 96.31343499 5.0945489 92.65931702 5.09336853 C85.76792816 5.09028395 78.87655553 5.08211008 71.98517376 5.07201904 C64.12761569 5.06076767 56.27005677 5.05532491 48.41249263 5.05032361 C32.27498565 5.03992443 16.13749491 5.02238178 0 5 C0 3.35 0 1.7 0 0 Z " fill="#623400" transform="translate(0,37)"/>
<path d="M0 0 C41.25 0 82.5 0 125 0 C125 0.99 125 1.98 125 3 C83.75 3 42.5 3 0 3 C0 2.01 0 1.02 0 0 Z " fill="#532600" transform="translate(0,3)"/>
<path d="M0 0 C5.61 0 11.22 0 17 0 C17 0.99 17 1.98 17 3 C120.95 3.495 120.95 3.495 227 4 C227 5.32 227 6.64 227 8 C220.4 8 213.8 8 207 8 C207 7.01 207 6.02 207 5 C138.69 5 70.38 5 0 5 C0 3.35 0 1.7 0 0 Z " fill="#222222" transform="translate(0,204)"/>
<path d="M0 0 C36.3 0 72.6 0 110 0 C110 0.33 110 0.66 110 1 C117.92 1.33 125.84 1.66 134 2 C134 2.33 134 2.66 134 3 C89.78 3 45.56 3 0 3 C0 2.01 0 1.02 0 0 Z " fill="#180900" transform="translate(0,54)"/>
<path d="M0 0 C74.91 0 149.82 0 227 0 C227 0.33 227 0.66 227 1 C155.06 1 83.12 1 9 1 C9 2.32 9 3.64 9 5 C6.03 5 3.06 5 0 5 C0 3.35 0 1.7 0 0 Z " fill="#3F0F0F" transform="translate(0,187)"/>
<path d="M0 0 C71.94 0 143.88 0 218 0 C218 1.32 218 2.64 218 4 C214.7 4 211.4 4 208 4 C208 3.34 208 2.68 208 2 C139.36 1.67 70.72 1.34 0 1 C0 0.67 0 0.34 0 0 Z " fill="#111111" transform="translate(9,188)"/>
<path d="M0 0 C5.61 0 11.22 0 17 0 C17 1.32 17 2.64 17 4 C11.39 4 5.78 4 0 4 C0 2.68 0 1.36 0 0 Z " fill="#7B7B7B" transform="translate(0,204)"/>
<path d="M0 0 C2.97 0 5.94 0 9 0 C9 1.32 9 2.64 9 4 C6.03 4 3.06 4 0 4 C0 2.68 0 1.36 0 0 Z " fill="#787878" transform="translate(0,188)"/>
</svg>
