<?xml version="1.0" encoding="UTF-8"?>
<svg version="1.1" xmlns="http://www.w3.org/2000/svg" width="227" height="222">
<path d="M0 0 C74.91 0 149.82 0 227 0 C227 73.26 227 146.52 227 222 C152.09 222 77.18 222 0 222 C0 148.74 0 75.48 0 0 Z " fill="#280620" transform="translate(0,0)"/>
<path d="M0 0 C74.91 0 149.82 0 227 0 C227 29.7 227 59.4 227 90 C179.67975971 90.04030303 179.67975971 90.04030303 159.65039062 90.04882812 C145.89200461 90.0547316 132.13362479 90.06162126 118.37524414 90.07543945 C108.34926725 90.08550409 98.32329544 90.091881 88.29731363 90.09408849 C83.00390298 90.09537591 77.71050684 90.09833342 72.41710091 90.10573006 C67.40287321 90.11267772 62.38866557 90.1145803 57.37443352 90.11310768 C55.56449142 90.11337582 53.75454843 90.11526703 51.9446106 90.11920547 C34.60511406 90.15498351 17.34997393 89.52575679 0 89 C0 59.63 0 30.26 0 0 Z " fill="#3F1139" transform="translate(0,0)"/>
<path d="M0 0 C74.91 0 149.82 0 227 0 C227 12.21 227 24.42 227 37 C211.8280478 37.13198802 196.65608551 37.26267424 181.4841032 37.39115143 C174.43511436 37.45088164 167.38613092 37.51114707 160.3371582 37.57275391 C118.77707058 37.93547777 77.24204989 38.18104529 35.68383789 37.53643799 C30.91066813 37.46309344 26.13743837 37.39375714 21.36421967 37.32368469 C14.24276492 37.21872253 7.12140006 37.10893155 0 37 C0 24.79 0 12.58 0 0 Z " fill="#300C2B" transform="translate(0,0)"/>
<path d="M0 0 C74.91 0 149.82 0 227 0 C227 2.97 227 5.94 227 9 C152.09 9 77.18 9 0 9 C0 6.03 0 3.06 0 0 Z " fill="#350F31" transform="translate(0,67)"/>
<path d="M0 0 C74.91 0 149.82 0 227 0 C227 2.64 227 5.28 227 8 C207.35417409 8.03119235 187.70834637 8.05116734 168.0625 8.0625 C167.33131738 8.0629343 166.60013475 8.06336861 165.84679508 8.06381607 C124.02005881 8.08798477 82.19960875 7.97728298 40.375 7.5 C39.32637409 7.48804218 38.27774818 7.47608437 37.19734573 7.46376419 C24.79807001 7.32130755 12.39896042 7.16765004 0 7 C0 4.69 0 2.38 0 0 Z " fill="#43113C" transform="translate(0,0)"/>
<path d="M0 0 C74.91 0 149.82 0 227 0 C227 2.31 227 4.62 227 7 C211.82805003 7.13222904 196.65608539 7.26267424 181.4841032 7.39115143 C174.43511436 7.45088164 167.38613092 7.51114707 160.3371582 7.57275391 C118.77707058 7.93547777 77.24204989 8.18104529 35.68383789 7.53643799 C31.63235282 7.47418285 27.58082292 7.41498608 23.52929688 7.35546875 C15.68615327 7.23983292 7.84306224 7.12104197 0 7 C0 4.69 0 2.38 0 0 Z " fill="#471340" transform="translate(0,30)"/>
<path d="M0 0 C74.91 0 149.82 0 227 0 C227 2.31 227 4.62 227 7 C152.09 7 77.18 7 0 7 C0 4.69 0 2.38 0 0 Z " fill="#461340" transform="translate(0,23)"/>
<path d="M0 0 C24.72452271 -0.02351019 49.44904371 -0.04106718 74.1735754 -0.05181217 C85.65730605 -0.05693705 97.14102971 -0.0639058 108.62475586 -0.07543945 C118.65073275 -0.08550409 128.67670456 -0.091881 138.70268637 -0.09408849 C143.99609702 -0.09537591 149.28949316 -0.09833342 154.58289909 -0.10573006 C178.74249204 -0.13821937 202.85687523 0.05461041 227 1 C227 2.98 227 4.96 227 7 C152.09 7 77.18 7 0 7 C0 4.69 0 2.38 0 0 Z " fill="#45123E" transform="translate(0,7)"/>
<path d="M0 0 C74.91 0 149.82 0 227 0 C227 1.32 227 2.64 227 4 C207.35417409 4.03119235 187.70834637 4.05116734 168.0625 4.0625 C167.33131738 4.0629343 166.60013475 4.06336861 165.84679508 4.06381607 C124.02005881 4.08798477 82.19960875 3.97728298 40.375 3.5 C39.32637409 3.48804218 38.27774818 3.47608437 37.19734573 3.46376419 C24.79807001 3.32130755 12.39896042 3.16765004 0 3 C0 2.01 0 1.02 0 0 Z " fill="#2F0A29" transform="translate(0,4)"/>
<path d="M0 0 C74.91 0 149.82 0 227 0 C227 1.32 227 2.64 227 4 C211.47917658 4.03165537 195.95835162 4.05133123 180.4375 4.0625 C178.66618462 4.06378403 178.66618462 4.06378403 176.85908508 4.06509399 C135.48682471 4.09147701 94.12029984 3.87231996 52.75 3.5 C51.7524174 3.49103943 51.7524174 3.49103943 50.73468161 3.48189783 C33.82303715 3.32982456 16.91148005 3.16935713 0 3 C0 2.01 0 1.02 0 0 Z " fill="#350E30" transform="translate(0,76)"/>
<path d="M0 0 C1.18965363 0.02219604 2.37930725 0.04439209 3.60501099 0.06726074 C7.30181777 0.13666487 10.99856256 0.2088885 14.6953125 0.28125 C17.24478808 0.32961667 19.79426724 0.37779483 22.34375 0.42578125 C28.50264702 0.54210547 34.66149629 0.66072636 40.8203125 0.78125 C40.8203125 1.77125 40.8203125 2.76125 40.8203125 3.78125 C-34.0896875 3.78125 -108.9996875 3.78125 -186.1796875 3.78125 C-186.1796875 2.79125 -186.1796875 1.80125 -186.1796875 0.78125 C-167.00207815 0.64995505 -147.82446309 0.51952721 -128.64684105 0.39009857 C-119.73998109 0.32996704 -110.83312313 0.26956428 -101.92626953 0.20849609 C-94.15237599 0.15519656 -86.378479 0.10243332 -78.60457766 0.05028296 C-74.49809479 0.02271716 -70.39161397 -0.00509598 -66.28513718 -0.03355408 C-18.23035408 -0.36600572 -18.23035408 -0.36600572 0 0 Z " fill="#310D2C" transform="translate(186.1796875,47.21875)"/>
<path d="M0 0 C74.91 0 149.82 0 227 0 C227 0.99 227 1.98 227 3 C208.03407038 3.15731655 189.06808623 3.30510877 170.102005 3.4429636 C161.28622709 3.5072397 152.47048682 3.57414198 143.65478516 3.64819336 C95.75363424 4.04871586 47.89514672 3.89809262 0 3 C0 2.01 0 1.02 0 0 Z " fill="#2F0C2B" transform="translate(0,30)"/>
<path d="M0 0 C74.91 0 149.82 0 227 0 C227 0.99 227 1.98 227 3 C152.09 3 77.18 3 0 3 C0 2.01 0 1.02 0 0 Z " fill="#6A1F62" transform="translate(0,67)"/>
<path d="M0 0 C74.91 0 149.82 0 227 0 C227 0.99 227 1.98 227 3 C152.09 3 77.18 3 0 3 C0 2.01 0 1.02 0 0 Z " fill="#351031" transform="translate(0,64)"/>
<path d="M0 0 C74.91 0 149.82 0 227 0 C227 0.99 227 1.98 227 3 C152.09 3 77.18 3 0 3 C0 2.01 0 1.02 0 0 Z " fill="#6B2063" transform="translate(0,61)"/>
<path d="M0 0 C74.91 0 149.82 0 227 0 C227 0.99 227 1.98 227 3 C152.09 3 77.18 3 0 3 C0 2.01 0 1.02 0 0 Z " fill="#351031" transform="translate(0,58)"/>
<path d="M0 0 C74.91 0 149.82 0 227 0 C227 0.99 227 1.98 227 3 C152.09 3 77.18 3 0 3 C0 2.01 0 1.02 0 0 Z " fill="#641C5B" transform="translate(0,55)"/>
<path d="M0 0 C74.91 0 149.82 0 227 0 C227 0.99 227 1.98 227 3 C152.09 3 77.18 3 0 3 C0 2.01 0 1.02 0 0 Z " fill="#2E0C2A" transform="translate(0,14)"/>
<path d="M0 0 C74.91 0 149.82 0 227 0 C227 0.99 227 1.98 227 3 C152.09 3 77.18 3 0 3 C0 2.01 0 1.02 0 0 Z " fill="#5F1956" transform="translate(0,27)"/>
<path d="M0 0 C74.91 0 149.82 0 227 0 C227 0.99 227 1.98 227 3 C152.09 3 77.18 3 0 3 C0 2.01 0 1.02 0 0 Z " fill="#6A2062" transform="translate(0,73)"/>
<path d="M0 0 C74.91 0 149.82 0 227 0 C227 0.99 227 1.98 227 3 C152.09 3 77.18 3 0 3 C0 2.01 0 1.02 0 0 Z " fill="#5F1A56" transform="translate(0,17)"/>
<path d="M0 0 C74.91 0 149.82 0 227 0 C227 0.99 227 1.98 227 3 C152.09 3 77.18 3 0 3 C0 2.01 0 1.02 0 0 Z " fill="#601B58" transform="translate(0,37)"/>
<path d="M0 0 C24.72452271 -0.02351019 49.44904371 -0.04106718 74.1735754 -0.05181217 C85.65730605 -0.05693705 97.14102971 -0.0639058 108.62475586 -0.07543945 C118.65073275 -0.08550409 128.67670456 -0.091881 138.70268637 -0.09408849 C143.99609702 -0.09537591 149.28949316 -0.09833342 154.58289909 -0.10573006 C178.74249204 -0.13821937 202.85687523 0.05461041 227 1 C227 1.66 227 2.32 227 3 C152.09 3 77.18 3 0 3 C0 2.01 0 1.02 0 0 Z " fill="#6A2063" transform="translate(0,79)"/>
<path d="M0 0 C74.91 0 149.82 0 227 0 C227 0.99 227 1.98 227 3 C152.09 3 77.18 3 0 3 C0 2.01 0 1.02 0 0 Z " fill="#631C5A" transform="translate(0,45)"/>
<path d="M0 0 C74.91 0 149.82 0 227 0 C227 0.99 227 1.98 227 3 C202.27547729 3.02351019 177.55095629 3.04106718 152.8264246 3.05181217 C141.34269395 3.05693705 129.85897029 3.0639058 118.37524414 3.07543945 C108.34926725 3.08550409 98.32329544 3.091881 88.29731363 3.09408849 C83.00390298 3.09537591 77.71050684 3.09833342 72.41710091 3.10573006 C48.25750796 3.13821937 24.14312477 2.94538959 0 2 C0 1.34 0 0.68 0 0 Z " fill="#621C5A" transform="translate(0,87)"/>
<path d="M0 0 C24.72452271 -0.02351019 49.44904371 -0.04106718 74.1735754 -0.05181217 C85.65730605 -0.05693705 97.14102971 -0.0639058 108.62475586 -0.07543945 C118.65073275 -0.08550409 128.67670456 -0.091881 138.70268637 -0.09408849 C143.99609702 -0.09537591 149.28949316 -0.09833342 154.58289909 -0.10573006 C178.74249204 -0.13821937 202.85687523 0.05461041 227 1 C227 1.66 227 2.32 227 3 C152.09 3 77.18 3 0 3 C0 2.01 0 1.02 0 0 Z " fill="#5D1A55" transform="translate(0,7)"/>
</svg>
